<svg width="30" height="30" viewBox="0 0 30 30" fill="none" xmlns="http://www.w3.org/2000/svg">
<path d="M8.48644 25.2017C7.98395 25.2017 7.50204 25.0021 7.14673 24.6468C6.79141 24.2914 6.5918 23.8095 6.5918 23.307V12.5312H23.4068V23.307C23.4068 23.8095 23.2072 24.2914 22.8518 24.6468C22.4965 25.0021 22.0146 25.2017 21.5121 25.2017H8.48644ZM8.01278 23.307C8.01278 23.4327 8.06268 23.5531 8.15151 23.642C8.24034 23.7308 8.36082 23.7807 8.48644 23.7807H21.5121C21.6377 23.7807 21.7582 23.7308 21.8471 23.642C21.9359 23.5531 21.9858 23.4327 21.9858 23.307V13.9522H8.01278V23.307Z" fill="currentColor"/>
<path d="M6.71105 13.9525C6.20856 13.9525 5.72665 13.7529 5.37133 13.3976C5.01602 13.0423 4.81641 12.5604 4.81641 12.0579V9.68957C4.81641 9.18708 5.01602 8.70517 5.37133 8.34985C5.72665 7.99454 6.20856 7.79492 6.71105 7.79492H23.2892C23.7917 7.79492 24.2736 7.99454 24.6289 8.34985C24.9842 8.70517 25.1838 9.18708 25.1838 9.68957V12.0579C25.1838 12.5604 24.9842 13.0423 24.6289 13.3976C24.2736 13.7529 23.7917 13.9525 23.2892 13.9525H6.71105ZM6.23739 12.0579C6.23739 12.1835 6.28729 12.304 6.37612 12.3928C6.46495 12.4816 6.58543 12.5315 6.71105 12.5315H23.2892C23.4148 12.5315 23.5353 12.4816 23.6241 12.3928C23.7129 12.304 23.7629 12.1835 23.7629 12.0579V9.68957C23.7629 9.56394 23.7129 9.44347 23.6241 9.35464C23.5353 9.26581 23.4148 9.2159 23.2892 9.2159H6.71105C6.58543 9.2159 6.46495 9.26581 6.37612 9.35464C6.28729 9.44347 6.23739 9.56394 6.23739 9.68957V12.0579Z" fill="currentColor"/>
<path d="M11.4473 21.2007C11.4473 21.1074 11.4656 21.015 11.5013 20.9288C11.5371 20.8426 11.5894 20.7643 11.6554 20.6983C11.7213 20.6324 11.7997 20.58 11.8859 20.5443C11.9721 20.5086 12.0645 20.4902 12.1578 20.4902H17.8417C18.0301 20.4902 18.2108 20.5651 18.3441 20.6983C18.4773 20.8316 18.5522 21.0123 18.5522 21.2007C18.5522 21.3892 18.4773 21.5699 18.3441 21.7031C18.2108 21.8364 18.0301 21.9112 17.8417 21.9112H12.1578C11.9693 21.9112 11.7886 21.8364 11.6554 21.7031C11.5221 21.5699 11.4473 21.3892 11.4473 21.2007Z" fill="currentColor"/>
<path d="M12.6088 8.66017C12.4457 8.75417 12.2519 8.77959 12.0701 8.73086C11.8883 8.68213 11.7332 8.56322 11.639 8.40025L10.5732 6.55416C10.4831 6.39125 10.4605 6.19946 10.5103 6.02006C10.5601 5.84065 10.6783 5.68797 10.8396 5.59486C11.0008 5.50175 11.1921 5.47565 11.3724 5.52218C11.5527 5.56872 11.7075 5.68415 11.8036 5.84367L12.8693 7.68976C12.916 7.77061 12.9463 7.85987 12.9585 7.95244C12.9707 8.04501 12.9645 8.13908 12.9403 8.22926C12.9161 8.31944 12.8744 8.40397 12.8175 8.47801C12.7606 8.55205 12.6897 8.61415 12.6088 8.66076V8.66017ZM17.9848 8.66017C18.148 8.75436 18.3419 8.77989 18.5239 8.73114C18.7058 8.6824 18.861 8.56338 18.9552 8.40025L20.021 6.55416C20.1152 6.39093 20.1407 6.19695 20.0919 6.01491C20.0431 5.83287 19.924 5.67766 19.7608 5.58345C19.6799 5.5368 19.5907 5.50652 19.4982 5.49435C19.4057 5.48218 19.3117 5.48835 19.2215 5.51252C19.0395 5.56132 18.8843 5.68043 18.7901 5.84367L17.7243 7.68976C17.6776 7.77061 17.6473 7.85987 17.6351 7.95244C17.6229 8.04501 17.6291 8.13908 17.6533 8.22926C17.6775 8.31944 17.7192 8.40397 17.7761 8.47801C17.833 8.55205 17.9039 8.61415 17.9848 8.66076V8.66017Z" fill="currentColor"/>
</svg>
