<svg width="26" height="19" viewBox="0 0 26 19" fill="none" xmlns="http://www.w3.org/2000/svg">
<path d="M25.894 3.09375C25.9198 3.10342 25.9392 3.11631 25.9649 3.12598L25.9778 3.01963L25.894 3.09375ZM0.0128907 3.07764C0.0257813 3.07119 0.0418947 3.06797 0.0547853 3.0583L0 3.01318L0.0128907 3.07764ZM24.8177 4.36992C24.5889 4.36992 24.3826 4.46016 24.2312 4.60518C24.2215 4.61484 24.2183 4.61162 24.2215 4.59873L18.5593 9.70664L13.9477 0.467285C13.7317 0.180469 13.3901 0 13.0034 0C12.5522 0 12.1591 0.25459 11.9593 0.625196L7.425 9.70664L1.58232 4.43437C1.45986 4.3667 1.31807 4.32803 1.1666 4.32803C0.699316 4.32803 0.322266 4.7083 0.322266 5.17236C0.322266 5.21104 0.31582 5.23037 0.30293 5.23037L2.11084 16.1313C2.11084 16.0797 2.10762 16.0281 2.10117 15.9734C2.21074 16.9144 2.84561 17.6942 3.69961 18.0165C3.62227 17.9875 3.54492 17.965 3.47402 17.9521C5.28838 18.632 8.84941 18.0735 12.9519 18.0349C17.0736 17.9994 20.6669 18.4902 22.507 17.7716C22.4394 17.7845 22.3685 17.8038 22.2911 17.8328C23.1451 17.5073 23.78 16.7275 23.8896 15.7864C23.8767 15.896 23.8767 15.9991 23.8831 16.0926L25.6781 5.2626C25.6717 5.25615 25.6652 5.23682 25.6652 5.20781C25.6652 4.7502 25.2882 4.36992 24.8177 4.36992Z" fill="url(#paint0_linear_10185_32026)"/>
<defs>
<linearGradient id="paint0_linear_10185_32026" x1="13" y1="18" x2="13" y2="7" gradientUnits="userSpaceOnUse">
<stop stop-color="#FFDC00"/>
<stop offset="1" stop-color="#FF5900"/>
</linearGradient>
</defs>
</svg>
